<svg width="100" height="100" viewBox="0 0 100 100" fill="none" xmlns="http://www.w3.org/2000/svg">
<path d="M71.7583 16.6666H27.3146C19.1295 16.6666 12.5 23.2591 12.5 31.3701V68.6287C12.5 76.7397 19.1295 83.3322 27.3146 83.3322H71.7583C79.9433 83.3322 86.5728 76.7397 86.5728 68.6287V31.3701C86.5728 23.2591 79.9433 16.6666 71.7583 16.6666Z" stroke="white" stroke-width="3" stroke-miterlimit="10"/>
<path d="M75.4619 37.9626H56.9437C55.4252 37.9626 54.166 36.7033 54.166 35.1848C54.166 33.6663 55.4252 32.4071 56.9437 32.4071H75.4619C76.9804 32.4071 78.2396 33.6663 78.2396 35.1848C78.2396 36.7033 76.9804 37.9626 75.4619 37.9626Z" fill="white"/>
<path d="M75.4619 52.7771H60.6474C59.1289 52.7771 57.8696 51.5179 57.8696 49.9994C57.8696 48.4809 59.1289 47.2217 60.6474 47.2217H75.4619C76.9804 47.2217 78.2397 48.4809 78.2397 49.9994C78.2397 51.5179 76.9804 52.7771 75.4619 52.7771Z" fill="white"/>
<path d="M75.4619 67.5917H68.0546C66.5362 67.5917 65.2769 66.3325 65.2769 64.814C65.2769 63.2955 66.5362 62.0363 68.0546 62.0363H75.4619C76.9804 62.0363 78.2397 63.2955 78.2397 64.814C78.2397 66.3325 76.9804 67.5917 75.4619 67.5917Z" fill="white"/>
<path d="M36.5737 49.2213C37.6972 49.2213 38.8097 49 39.8477 48.5701C40.8857 48.1401 41.8288 47.5099 42.6233 46.7155C43.4177 45.921 44.0479 44.9779 44.4778 43.9399C44.9078 42.9019 45.1291 41.7894 45.1291 40.6659C45.1291 39.5424 44.9078 38.4299 44.4778 37.3919C44.0479 36.3539 43.4177 35.4107 42.6233 34.6163C41.8288 33.8219 40.8857 33.1917 39.8477 32.7617C38.8097 32.3318 37.6972 32.1105 36.5737 32.1105C34.3046 32.1105 32.1285 33.0118 30.5241 34.6163C28.9196 36.2207 28.0182 38.3968 28.0182 40.6659C28.0182 42.9349 28.9196 45.111 30.5241 46.7155C32.1285 48.3199 34.3046 49.2213 36.5737 49.2213Z" fill="white"/>
<path d="M39.5367 54.1132C37.5534 53.9281 35.5571 53.9281 33.5738 54.1132C27.3517 54.7058 22.3518 59.6317 21.7592 65.8538C21.7221 66.3723 21.8703 66.8908 22.2407 67.2612C22.611 67.6315 23.0925 67.8908 23.611 67.8908H49.5365C50.055 67.8908 50.5735 67.6686 50.9068 67.2982C51.2402 66.9278 51.4254 66.4093 51.3883 65.8908C51.084 62.8583 49.7357 60.0257 47.5739 57.8774C45.4121 55.729 42.571 54.3985 39.5367 54.1132Z" fill="white"/>
</svg>
