<svg width="100" height="100" viewBox="0 0 100 100" fill="none" xmlns="http://www.w3.org/2000/svg">
<path d="M17.4458 55.2551V48.2477C17.4458 30.7292 32.1124 16.3885 50.3235 16.3885C62.2606 16.3885 72.6902 22.5403 78.4347 31.7477C79.3309 33.1736 81.205 33.6218 82.631 32.7255C84.0569 31.8292 84.505 29.9551 83.6087 28.5292C76.7643 17.5699 64.4198 10.2773 50.3235 10.2773C28.9754 10.2773 11.4976 27.1033 11.3754 48.044L9.3791 46.0885C8.15688 44.907 6.24207 44.9477 5.06058 46.1292C3.8791 47.3514 3.91984 49.2662 5.10132 50.4477L12.2717 57.4551C13.168 58.3107 14.4717 58.5551 15.5717 58.0662C16.6717 57.5773 17.4458 56.4773 17.4458 55.2551Z" fill="white"/>
<path d="M94.8923 49.5108L87.6812 42.5033C86.7849 41.6478 85.4812 41.4033 84.3812 41.8922C83.2405 42.3811 82.5071 43.4811 82.5071 44.7033V51.7108C82.5071 69.2293 67.7997 83.6108 49.5071 83.6108C37.5293 83.6108 27.059 77.4589 21.2738 68.2515C20.3775 66.8256 18.5034 66.3774 17.0775 67.2737C15.6516 68.17 15.2034 70.0441 16.0997 71.47C22.9849 82.3885 35.3701 89.6811 49.5071 89.6811C70.9367 89.6811 88.496 72.8552 88.6182 51.8737L90.6553 53.87C91.8775 55.0515 93.7923 55.0108 94.9738 53.7885C96.1553 52.5663 96.1145 50.6515 94.8923 49.47V49.5108Z" fill="white"/>
<path d="M51.1338 53.758L47.3313 52.6912C45.6941 52.229 44.237 51.1625 43.2138 49.6912C42.2191 48.2732 41.6666 46.4685 41.6666 44.6238C41.6666 40.9211 43.8644 37.8139 46.8768 36.7338V36.667C46.8768 34.8268 48.2521 33.3333 49.9466 33.3333C51.6411 33.3333 53.0164 34.8268 53.0164 36.667V36.6893C55.816 37.6405 57.9527 40.3301 58.2883 43.7127C58.4684 45.5441 57.2529 47.1928 55.5665 47.3884C53.8434 47.5706 52.3616 46.2641 52.1815 44.4328C52.0996 43.5927 51.5144 42.9612 50.8267 42.9612H49.1689C48.4158 42.9612 47.8062 43.7081 47.8062 44.6238C47.8062 45.0149 47.9206 45.397 48.113 45.6726C48.2644 45.8816 48.5018 46.1352 48.8702 46.2418L52.6769 47.3086C56.0127 48.2598 58.3333 51.576 58.3333 55.3809C58.3333 57.5723 57.568 59.6437 56.1764 61.2172C55.28 62.2218 54.1953 62.9018 53.0206 63.3019V63.3328C53.0206 65.1731 51.6454 66.6666 49.9509 66.6666C48.2564 66.6666 46.8811 65.1731 46.8811 63.3328V63.2753C44.1347 62.2929 42.0471 59.6254 41.7156 56.2827C41.5355 54.4514 42.7513 52.8027 44.4376 52.6071C46.1444 52.4116 47.6382 53.7314 47.8224 55.5627C47.9043 56.385 48.4977 57.0343 49.1772 57.0343H50.835C51.2688 57.0343 51.58 56.79 51.7601 56.5855C51.9197 56.4033 52.198 55.9984 52.198 55.3761C52.198 54.6026 51.76 53.9358 51.1338 53.758Z" fill="white"/>
</svg>
