<svg width="100" height="100" viewBox="0 0 100 100" fill="none" xmlns="http://www.w3.org/2000/svg">
<path d="M30.8877 90.625C30.3168 90.625 29.746 90.4709 29.2377 90.15C28.0043 89.3792 27.4626 87.8584 27.9376 86.4834L39.3916 53.1208H29.1792C26.8375 53.1208 24.6249 51.9875 23.2583 50.0875C21.8916 48.1917 21.5208 45.7376 22.2583 43.5209L33.1793 15.6292C34.4418 11.8251 37.7166 9.37085 41.6708 9.37085H60.3333C62.7958 9.37085 65.071 10.6001 66.4251 12.6542C67.7793 14.7126 68.0041 17.2917 67.0291 19.5501L60.6334 34.3708H70.8293C73.7877 34.3708 76.4335 36.1375 77.5668 38.8709C78.7002 41.6042 78.0792 44.725 75.9876 46.8167L33.1043 89.7042C32.4959 90.3126 31.696 90.625 30.8877 90.625ZM41.6667 15.625C40.0084 15.625 39.3168 16.9625 39.0501 17.7625L28.1291 45.6583C28.0375 45.9458 28.2124 46.2834 28.3249 46.4417C28.4416 46.6042 28.7084 46.875 29.1751 46.875H41.1375C42.75 46.875 44.2708 47.6584 45.2083 48.9667C46.1458 50.275 46.3916 51.9709 45.8708 53.4959L38.2376 75.7376L71.5668 42.4042C71.996 41.9751 71.8916 41.5084 71.7916 41.2709C71.6916 41.0334 71.4335 40.6292 70.8293 40.6292H58.7334C57.0459 40.6292 55.4875 39.7875 54.5584 38.3792C53.6292 36.9709 53.4751 35.2001 54.1418 33.6501L61.2918 17.0834C61.4835 16.6334 61.321 16.2709 61.2043 16.0959C61.0877 15.9209 60.8251 15.625 60.3376 15.625H41.6667V15.625ZM41.1375 53.125H41.1792H41.1375Z" fill="white"/>
</svg>
