<svg width="100" height="100" viewBox="0 0 100 100" fill="none" xmlns="http://www.w3.org/2000/svg">
<path d="M57.2917 58.3333C57.2917 60.0583 55.8917 61.4583 54.1667 61.4583H29.1667C27.4417 61.4583 26.0417 60.0583 26.0417 58.3333C26.0417 56.6083 27.4417 55.2083 29.1667 55.2083H54.1667C55.8917 55.2083 57.2917 56.6083 57.2917 58.3333ZM41.6667 67.7083H29.1667C27.4417 67.7083 26.0417 69.1083 26.0417 70.8333C26.0417 72.5583 27.4417 73.9583 29.1667 73.9583H41.6667C43.3917 73.9583 44.7917 72.5583 44.7917 70.8333C44.7917 69.1083 43.3917 67.7083 41.6667 67.7083ZM90.625 47.9167V79.1667C90.625 85.4875 85.4875 90.625 79.1667 90.625H25C14.925 90.625 9.375 85.075 9.375 75V25C9.375 14.925 14.925 9.375 25 9.375H58.3333C68.4083 9.375 73.9583 14.925 73.9583 25V38.5417H81.25C86.4208 38.5417 90.625 42.7458 90.625 47.9167ZM68.9626 84.375C68.1626 82.8125 67.7083 81.0417 67.7083 79.1667V25C67.7083 18.4292 64.9042 15.625 58.3333 15.625H25C18.4292 15.625 15.625 18.4292 15.625 25V75C15.625 81.5708 18.4292 84.375 25 84.375H68.9626ZM84.375 47.9167C84.375 46.1917 82.975 44.7917 81.25 44.7917H73.9583V79.1667C73.9583 82.0375 76.2958 84.375 79.1667 84.375C82.0375 84.375 84.375 82.0375 84.375 79.1667V47.9167ZM31.8041 37.9415L35.675 38.9414C36.3125 39.1081 36.7584 39.7332 36.7584 40.4582C36.7584 41.0415 36.4751 41.4211 36.3126 41.5919C36.1293 41.7836 35.8126 42.0125 35.3709 42.0125H33.6833C32.9916 42.0125 32.3875 41.404 32.3041 40.6331C32.1166 38.9165 30.5959 37.6793 28.8584 37.8626C27.1418 38.046 25.9041 39.5914 26.0874 41.3081C26.4249 44.4414 28.55 46.9419 31.3459 47.8628V47.9167C31.3459 49.6417 32.7459 51.0417 34.4709 51.0417C36.1959 51.0417 37.5959 49.6417 37.5959 47.9167V47.8877C38.7917 47.5127 39.8959 46.8752 40.8084 45.9335C42.225 44.4585 43.0041 42.5169 43.0041 40.4627C43.0041 36.8961 40.6418 33.7876 37.2459 32.8959L33.3707 31.896C32.9957 31.796 32.7541 31.5582 32.5999 31.3624C32.4041 31.1041 32.2876 30.7459 32.2876 30.3792C32.2876 29.5209 32.9082 28.8208 33.6749 28.8208H35.3625C36.0625 28.8208 36.6583 29.4127 36.7416 30.2002C36.925 31.9169 38.4334 33.1415 40.1876 32.9707C41.9042 32.7873 43.1417 31.2419 42.9583 29.5252C42.6167 26.3544 40.4416 23.8333 37.5916 22.9416V22.9207C37.5916 21.1957 36.1916 19.7957 34.4666 19.7957C32.7416 19.7957 31.3416 21.1957 31.3416 22.9207V22.9833C28.2749 23.9958 26.0376 26.9084 26.0376 30.3792C26.0376 32.1084 26.6001 33.8001 27.6126 35.1293C28.6542 36.5085 30.1375 37.5082 31.8041 37.9415Z" fill="white"/>
</svg>
