<svg width="100" height="100" viewBox="0 0 100 100" fill="none" xmlns="http://www.w3.org/2000/svg">
<path fill-rule="evenodd" clip-rule="evenodd" d="M70.834 11.4568C62.4653 11.4568 54.7083 13.1007 48.6782 15.917C43.6038 18.2871 36.7742 19.7901 29.1673 19.7901C24.9506 19.7901 20.9585 19.3279 17.365 18.5048C11.8382 17.239 5.20898 21.0267 5.20898 27.5567V72.4402C5.20898 75.9216 5.76074 79.1993 7.56915 81.8683C9.43915 84.6282 12.321 86.2614 15.9696 87.0971C20.0402 88.0294 24.5013 88.5401 29.1673 88.5401C37.536 88.5401 45.293 86.8962 51.3231 84.0799C56.3975 81.7098 63.2271 80.2068 70.834 80.2068C75.0507 80.2068 79.0428 80.669 82.6363 81.4921C88.1631 82.758 94.7923 78.9702 94.7923 72.4402V27.5567C94.7923 24.2365 94.3456 20.9757 92.5916 18.2795C90.7611 15.4658 87.8528 13.775 84.0317 12.8998C79.9611 11.9675 75.5 11.4568 70.834 11.4568ZM50.0007 62.4985C56.9042 62.4985 62.5007 56.902 62.5007 49.9985C62.5007 43.0949 56.9042 37.4985 50.0007 37.4985C43.0971 37.4985 37.5007 43.0949 37.5007 49.9985C37.5007 56.902 43.0971 62.4985 50.0007 62.4985ZM22.9173 49.9985C25.2185 49.9985 27.084 51.8639 27.084 54.1651V54.2025C27.084 56.5037 25.2185 58.3692 22.9173 58.3692C20.6161 58.3692 18.7507 56.5037 18.7507 54.2025V54.1651C18.7507 51.8639 20.6161 49.9985 22.9173 49.9985ZM81.2507 45.7992C81.2507 43.4981 79.3852 41.6326 77.084 41.6326C74.7828 41.6326 72.9173 43.4981 72.9173 45.7992V45.8367C72.9173 48.1378 74.7828 50.0033 77.084 50.0033C79.3852 50.0033 81.2507 48.1378 81.2507 45.8367V45.7992Z" stroke="white" stroke-width="2.5"/>
<circle cx="50" cy="50" r="12" fill="white"/>
<circle cx="23" cy="54" r="4" fill="white"/>
<circle cx="77" cy="46" r="4" fill="white"/>
</svg>
