<svg width="100" height="100" viewBox="0 0 100 100" fill="none" xmlns="http://www.w3.org/2000/svg">
<path fill-rule="evenodd" clip-rule="evenodd" d="M51.2551 25.031C54.6316 25.031 57.379 27.7818 57.379 31.1576C57.379 34.5331 54.6316 37.2842 51.2551 37.2842C47.8786 37.2842 45.1312 34.5333 45.1312 31.1576C45.1312 27.7818 47.8786 25.031 51.2551 25.031ZM51.2551 42.0656C57.2688 42.0656 62.1597 37.1712 62.1597 31.1576C62.1597 25.1439 57.2689 20.2495 51.2551 20.2495C45.243 20.2495 40.3505 25.1439 40.3505 31.1576C40.3505 37.1712 45.243 42.0656 51.2551 42.0656ZM70.8115 82.7195H29.1839C28.8984 82.7195 28.6164 82.7066 28.3362 82.6866L55.0032 56.0187C57.4598 53.5628 60.7401 52.2109 64.2425 52.2109C67.7449 52.2109 71.0251 53.5628 73.4818 56.0187L82.7203 65.2528V70.8145C82.7202 77.3791 77.3763 82.7195 70.8115 82.7195ZM17.2796 70.8143C17.2796 75.1879 19.6514 79.0158 23.1753 81.0854L44.2382 60.0226L31.7386 47.524C29.8547 45.64 27.3372 44.6014 24.6496 44.6014C21.9621 44.6014 19.4446 45.6402 17.5607 47.524L17.2794 47.8052L17.2796 70.8143ZM29.1839 17.2817C22.62 17.2817 17.2796 22.6273 17.2796 29.1877V41.7706C19.4941 40.5036 22.0177 39.8182 24.6496 39.8182C28.6145 39.8182 32.3322 41.3542 35.1194 44.1432L47.6181 56.6418L51.622 52.6379C54.9813 49.2796 59.4634 47.4294 64.2423 47.4294C69.0213 47.4294 73.5041 49.2796 76.8624 52.6379L82.72 58.4929V29.1875C82.72 22.6271 77.3761 17.2815 70.8115 17.2815L29.1839 17.2817ZM70.8115 12.5H29.1839C19.9836 12.5 12.4989 19.989 12.4989 29.1875V70.8143C12.4989 80.0153 19.9836 87.5 29.1839 87.5H70.8116C80.0119 87.5 87.5018 80.0153 87.5018 70.8143V29.1875C87.5016 19.989 80.0119 12.5 70.8115 12.5Z" fill="white"/>
<path fill-rule="evenodd" clip-rule="evenodd" d="M73.4818 56.0187C71.0251 53.5628 67.7449 52.2109 64.2425 52.2109C60.7401 52.2109 57.4598 53.5628 55.0032 56.0187L28.3362 82.6866C28.5221 82.6999 28.7088 82.71 28.8967 82.7154C28.9921 82.7181 29.0878 82.7195 29.1839 82.7195H70.8115C77.3763 82.7195 82.7202 77.3791 82.7203 70.8145V65.2528L73.4818 56.0187ZM82.3037 65.4254L73.1872 56.3134C70.8094 53.9363 67.6354 52.6275 64.2425 52.6275C60.8495 52.6275 57.6756 53.9363 55.2978 56.3133C55.2978 56.3133 55.2978 56.3133 55.2978 56.3133L29.3092 82.3029H70.8115C77.1463 82.3029 82.3035 77.1489 82.3037 70.8145V65.4254ZM17.6963 70.8143C17.6963 74.9189 19.8614 78.527 23.1118 80.5597L43.649 60.0226L31.444 47.8186L31.7386 47.524L44.2382 60.0226L23.1753 81.0854C19.6514 79.0158 17.2796 75.1879 17.2796 70.8143L17.2794 47.8052L17.5607 47.524C19.4446 45.6402 21.9621 44.6014 24.6496 44.6014C27.3372 44.6014 29.8547 45.64 31.7386 47.524L31.444 47.8186C29.6388 46.0135 27.2277 45.018 24.6496 45.018C22.0716 45.018 19.6605 46.0136 17.8553 47.8186L17.6961 47.9778L17.6963 70.8143ZM29.1839 17.6983C22.8503 17.6983 17.6963 22.8572 17.6963 29.1877V41.0712C19.8187 39.9848 22.1886 39.4015 24.6496 39.4015C28.7244 39.4015 32.5482 40.981 35.4141 43.8486C35.4141 43.8486 35.414 43.8485 35.4141 43.8486L47.6181 56.0526L51.3274 52.3433C54.7654 48.9063 59.3536 47.0127 64.2423 47.0127C69.131 47.0127 73.72 48.9062 77.1571 52.3433L82.3033 57.4873V29.1875C82.3033 22.8572 77.146 17.6982 70.8115 17.6982L29.1839 17.6983ZM82.72 58.4929L76.8624 52.6379C73.5041 49.2796 69.0213 47.4294 64.2423 47.4294C59.4634 47.4294 54.9813 49.2796 51.622 52.6379L47.6181 56.6418L35.1194 44.1432C32.3322 41.3542 28.6145 39.8182 24.6496 39.8182C22.1814 39.8182 19.8084 40.421 17.6963 41.541C17.5562 41.6153 17.4173 41.6919 17.2796 41.7706V29.1877C17.2796 22.6273 22.62 17.2817 29.1839 17.2817L70.8115 17.2815C77.3761 17.2815 82.72 22.6271 82.72 29.1875V58.4929ZM56.9624 31.1576C56.9624 28.0117 54.4013 25.4476 51.2551 25.4476C48.109 25.4476 45.5479 28.0117 45.5479 31.1576C45.5479 34.3035 48.109 36.8675 51.2551 36.8675C54.4012 36.8675 56.9624 34.3033 56.9624 31.1576ZM62.5764 31.1576C62.5764 37.4012 57.4991 42.4823 51.2551 42.4823C45.0128 42.4823 39.9339 37.4012 39.9339 31.1576C39.9339 24.9139 45.0128 19.8328 51.2551 19.8328C57.4992 19.8328 62.5764 24.9139 62.5764 31.1576ZM29.1839 12.0834H70.8115C80.2419 12.0834 87.9183 19.7588 87.9185 29.1875V70.8143C87.9185 80.2456 80.2418 87.9167 70.8116 87.9167H29.1839C19.7535 87.9167 12.0823 80.2454 12.0823 70.8143V29.1875C12.0823 19.759 19.7534 12.0834 29.1839 12.0834ZM57.379 31.1576C57.379 27.7818 54.6316 25.031 51.2551 25.031C47.8786 25.031 45.1312 27.7818 45.1312 31.1576C45.1312 34.5333 47.8786 37.2842 51.2551 37.2842C54.6316 37.2842 57.379 34.5331 57.379 31.1576ZM62.1597 31.1576C62.1597 37.1712 57.2688 42.0656 51.2551 42.0656C45.243 42.0656 40.3505 37.1712 40.3505 31.1576C40.3505 25.1439 45.243 20.2495 51.2551 20.2495C57.2689 20.2495 62.1597 25.1439 62.1597 31.1576ZM29.1839 12.5H70.8115C80.0119 12.5 87.5016 19.989 87.5018 29.1875V70.8143C87.5018 80.0153 80.0119 87.5 70.8116 87.5H29.1839C19.9836 87.5 12.4989 80.0153 12.4989 70.8143V29.1875C12.4989 19.989 19.9836 12.5 29.1839 12.5Z" fill="white"/>
<path fill-rule="evenodd" clip-rule="evenodd" d="M73.4818 56.0187C71.0251 53.5628 67.7449 52.2109 64.2425 52.2109C60.7401 52.2109 57.4598 53.5628 55.0032 56.0187L28.3362 82.6866C28.5221 82.6999 28.7088 82.71 28.8967 82.7154C28.9921 82.7181 29.0878 82.7195 29.1839 82.7195H70.8115C77.3763 82.7195 82.7202 77.3791 82.7203 70.8145V65.2528L73.4818 56.0187ZM82.3037 65.4254L73.1872 56.3134C70.8094 53.9363 67.6354 52.6275 64.2425 52.6275C60.8495 52.6275 57.6756 53.9363 55.2978 56.3133C55.2978 56.3133 55.2978 56.3133 55.2978 56.3133L29.3092 82.3029H70.8115C77.1463 82.3029 82.3035 77.1489 82.3037 70.8145V65.4254ZM17.6963 70.8143C17.6963 74.9189 19.8614 78.527 23.1118 80.5597L43.649 60.0226L31.444 47.8186C29.6388 46.0135 27.2277 45.018 24.6496 45.018C22.0716 45.018 19.6605 46.0136 17.8553 47.8186L17.6961 47.9778L17.6963 70.8143ZM17.2794 47.8052L17.5607 47.524C19.4446 45.6402 21.9621 44.6014 24.6496 44.6014C27.3372 44.6014 29.8547 45.64 31.7386 47.524L44.2382 60.0226L23.1753 81.0854C19.6514 79.0158 17.2796 75.1879 17.2796 70.8143L17.2794 47.8052ZM29.1839 17.6983C22.8503 17.6983 17.6963 22.8572 17.6963 29.1877V41.0712C19.8187 39.9848 22.1886 39.4015 24.6496 39.4015C28.7244 39.4015 32.5482 40.981 35.4141 43.8486C35.4141 43.8486 35.414 43.8485 35.4141 43.8486L47.6181 56.0526L51.3274 52.3433C54.7654 48.9063 59.3536 47.0127 64.2423 47.0127C69.131 47.0127 73.72 48.9062 77.1571 52.3433C77.1571 52.3433 77.1571 52.3432 77.1571 52.3433L82.3033 57.4873V29.1875C82.3033 22.8572 77.146 17.6982 70.8115 17.6982L29.1839 17.6983ZM82.72 58.4929L76.8624 52.6379C73.5041 49.2796 69.0213 47.4294 64.2423 47.4294C59.4634 47.4294 54.9813 49.2796 51.622 52.6379L47.6181 56.6418L35.1194 44.1432C32.3322 41.3542 28.6145 39.8182 24.6496 39.8182C22.1814 39.8182 19.8084 40.421 17.6963 41.541C17.5562 41.6153 17.4173 41.6919 17.2796 41.7706V29.1877C17.2796 22.6273 22.62 17.2817 29.1839 17.2817L70.8115 17.2815C77.3761 17.2815 82.72 22.6271 82.72 29.1875V58.4929ZM56.9624 31.1576C56.9624 28.0117 54.4013 25.4476 51.2551 25.4476C48.109 25.4476 45.5479 28.0117 45.5479 31.1576C45.5479 34.3035 48.109 36.8675 51.2551 36.8675C54.4012 36.8675 56.9624 34.3033 56.9624 31.1576ZM62.5764 31.1576C62.5764 37.4012 57.4991 42.4823 51.2551 42.4823C45.0128 42.4823 39.9339 37.4012 39.9339 31.1576C39.9339 24.9139 45.0128 19.8328 51.2551 19.8328C57.4992 19.8328 62.5764 24.9139 62.5764 31.1576ZM29.1839 12.0834H70.8115C80.2419 12.0834 87.9183 19.7588 87.9185 29.1875V70.8143C87.9185 80.2456 80.2418 87.9167 70.8116 87.9167H29.1839C19.7535 87.9167 12.0823 80.2454 12.0823 70.8143V29.1875C12.0823 19.759 19.7534 12.0834 29.1839 12.0834ZM57.379 31.1576C57.379 27.7818 54.6316 25.031 51.2551 25.031C47.8786 25.031 45.1312 27.7818 45.1312 31.1576C45.1312 34.5333 47.8786 37.2842 51.2551 37.2842C54.6316 37.2842 57.379 34.5331 57.379 31.1576ZM62.1597 31.1576C62.1597 37.1712 57.2688 42.0656 51.2551 42.0656C45.243 42.0656 40.3505 37.1712 40.3505 31.1576C40.3505 25.1439 45.243 20.2495 51.2551 20.2495C57.2689 20.2495 62.1597 25.1439 62.1597 31.1576ZM29.1839 12.5H70.8115C80.0119 12.5 87.5016 19.989 87.5018 29.1875V70.8143C87.5018 80.0153 80.0119 87.5 70.8116 87.5H29.1839C19.9836 87.5 12.4989 80.0153 12.4989 70.8143V29.1875C12.4989 19.989 19.9836 12.5 29.1839 12.5Z" fill="white"/>
</svg>
