<svg width="100" height="100" viewBox="0 0 100 100" fill="none" xmlns="http://www.w3.org/2000/svg">
<path d="M17.4458 55.2551V48.2477C17.4458 30.7292 32.1124 16.3885 50.3235 16.3885C62.2606 16.3885 72.6902 22.5403 78.4347 31.7477C79.3309 33.1736 81.205 33.6218 82.631 32.7255C84.0569 31.8292 84.505 29.9551 83.6087 28.5292C76.7643 17.5699 64.4198 10.2773 50.3235 10.2773C28.9754 10.2773 11.4976 27.1033 11.3754 48.044L9.3791 46.0885C8.15688 44.907 6.24207 44.9477 5.06058 46.1292C3.8791 47.3514 3.91984 49.2662 5.10132 50.4477L12.2717 57.4551C13.168 58.3107 14.4717 58.5551 15.5717 58.0662C16.6717 57.5773 17.4458 56.4773 17.4458 55.2551Z" fill="white"/>
<path d="M94.8923 49.5108L87.6812 42.5033C86.7849 41.6478 85.4812 41.4033 84.3812 41.8922C83.2405 42.3811 82.5071 43.4811 82.5071 44.7033V51.7108C82.5071 69.2293 67.7997 83.6108 49.5071 83.6108C37.5293 83.6108 27.059 77.4589 21.2738 68.2515C20.3775 66.8256 18.5034 66.3774 17.0775 67.2737C15.6516 68.17 15.2034 70.0441 16.0997 71.47C22.9849 82.3885 35.3701 89.6811 49.5071 89.6811C70.9367 89.6811 88.496 72.8552 88.6182 51.8737L90.6553 53.87C91.8775 55.0515 93.7923 55.0108 94.9738 53.7885C96.1553 52.5663 96.1145 50.6515 94.8923 49.47V49.5108Z" fill="white"/>
<path d="M47.4309 37.044H56.842C57.2902 37.044 57.7383 36.8811 58.0642 36.5552C58.3902 36.2292 58.5531 35.7811 58.5531 35.3329C58.5531 34.8848 58.3902 34.4366 58.0642 34.1107C57.7383 33.7848 57.2902 33.6218 56.842 33.6218H47.4309C45.842 33.6218 44.3346 34.2737 43.1939 35.3737C42.0531 36.5144 41.442 38.0626 41.442 39.6515C41.442 41.2403 42.0531 42.7885 43.1939 43.9292C44.3346 45.07 45.842 45.6811 47.4309 45.6811H49.9976V49.144H44.8642C44.4161 49.144 43.9679 49.307 43.642 49.6329C43.3161 49.9589 43.1531 50.407 43.1531 50.8552C43.1531 51.3033 43.3161 51.7515 43.642 52.0774C43.9679 52.4033 44.4161 52.5663 44.8642 52.5663H49.9976V56.0292H48.2865C47.2679 56.0292 46.2902 56.3144 45.4346 56.8848C44.5791 57.4552 43.9272 58.27 43.5605 59.207C43.1531 60.144 43.0716 61.2033 43.2754 62.1811C43.4791 63.1996 43.9679 64.0959 44.6605 64.8292C45.3939 65.5626 46.2902 66.0515 47.3087 66.2552C48.2865 66.4589 49.3457 66.3366 50.2828 65.97C51.2198 65.5626 52.0346 64.9107 52.605 64.0552C53.1754 63.1996 53.4605 62.2218 53.4605 61.1626V52.5255H56.8828C57.3309 52.5255 57.7791 52.3626 58.105 52.0366C58.4309 51.7107 58.5939 51.2626 58.5939 50.8144C58.5939 50.3663 58.4309 49.9181 58.105 49.5922C57.7791 49.2663 57.3309 49.1033 56.8828 49.1033H53.4605V43.9292C53.4605 43.4811 53.2976 43.0329 52.9716 42.707C52.6457 42.3811 52.1976 42.2181 51.7494 42.2181H47.4716C46.7791 42.2181 46.1272 41.9329 45.6383 41.444C45.1494 40.9552 44.905 40.3033 44.905 39.6107C44.905 38.9181 45.1902 38.2663 45.6383 37.7774C46.1272 37.2885 46.7791 37.0033 47.4716 37.0033L47.4309 37.044ZM49.9976 61.2033C49.9976 61.5292 49.9161 61.8959 49.7124 62.1811C49.5087 62.4663 49.2642 62.67 48.9383 62.8329C48.6124 62.9552 48.2865 62.9959 47.9605 62.9144C47.6346 62.8329 47.3087 62.67 47.0642 62.4255C46.8198 62.1811 46.6568 61.8959 46.6161 61.5292C46.5346 61.2033 46.6161 60.8366 46.6976 60.5515C46.7791 60.2663 47.0642 59.9811 47.3087 59.7774C47.5939 59.5737 47.9198 59.4922 48.2457 59.4922H49.9568V61.2033H49.9976Z" fill="white"/>
</svg>
