<svg width="100" height="100" viewBox="0 0 100 100" fill="none" xmlns="http://www.w3.org/2000/svg">
<path fill-rule="evenodd" clip-rule="evenodd" d="M70.7069 70.707C71.9273 69.4866 73.9059 69.4866 75.1263 70.707L93.8763 89.457C95.0967 90.6774 95.0967 92.656 93.8763 93.8764C92.6559 95.0968 90.6773 95.0968 89.4569 93.8764L70.7069 75.1264C69.4865 73.906 69.4865 71.9274 70.7069 70.707Z" fill="white"/>
<path fill-rule="evenodd" clip-rule="evenodd" d="M5.20825 45.8334C5.20825 23.3968 23.3967 5.20837 45.8333 5.20837C68.2698 5.20837 86.4583 23.3968 86.4583 45.8334C86.4583 68.2699 68.2698 86.4584 45.8333 86.4584C23.3967 86.4584 5.20825 68.2699 5.20825 45.8334ZM45.8333 11.4584C26.8485 11.4584 11.4583 26.8486 11.4583 45.8334C11.4583 64.8182 26.8485 80.2084 45.8333 80.2084C64.818 80.2084 80.2083 64.8182 80.2083 45.8334C80.2083 26.8486 64.818 11.4584 45.8333 11.4584Z" fill="white"/>
</svg>
